<svg width="165" height="20" viewBox="0 0 165 20" fill="none" xmlns="http://www.w3.org/2000/svg">
<path fill-rule="evenodd" clip-rule="evenodd" d="M7.54331 0.481321C4.63262 1.16562 2.13978 3.04966 0.765231 5.60307C0.153765 6.73918 0 7.6325 0 10.0466C0 13.6668 0.678384 15.2252 3.23173 17.47C5.37578 19.3548 7.5661 20 11.8218 20H15.1589L15.0493 18.4892L14.94 16.9784L11.2029 16.7925C9.14743 16.6905 7.1454 16.4253 6.75389 16.2031C3.45169 14.3305 2.36792 9.46927 4.5262 6.21165C5.95485 4.05531 7.86863 3.29245 11.8492 3.29245H15.1179V1.69279V0.0931334L12.0037 0.128683C10.291 0.14859 8.28362 0.307136 7.54331 0.481321ZM20.4567 1.65049V3.29245H25.2384C31.7243 3.29245 32.9138 3.81501 32.9138 6.66347C32.9138 7.94959 32.7319 8.35911 31.8186 9.12623C30.7512 10.0231 30.5936 10.0466 25.5901 10.0466H20.4567V15.0233V20H22.0583H23.66V16.6229V13.2459H25.9606H28.2616L30.6648 16.6229L33.0683 20H34.9486C35.9829 20 36.8289 19.9051 36.8289 19.7888C36.8289 19.6189 33.4932 14.816 32.1116 12.9963C31.8845 12.6974 32.1482 12.4183 32.99 12.0671C35.4817 11.0273 36.7805 8.44016 36.3648 5.34464C36.1146 3.48121 35.2084 2.27187 33.238 1.17166C31.7952 0.365785 31.2143 0.283316 26.0624 0.151433L20.4567 0.00816883V1.65049ZM42.8795 1.69279V3.29245H50.1758H57.4721V1.69279V0.0931334H50.1758H42.8795V1.69279ZM64.2345 1.64622V3.29245H67.2712C70.3844 3.29245 72.2829 3.80292 73.6023 4.99449C75.9556 7.1199 76.3229 11.7276 74.3369 14.2103C72.6655 16.2995 71.3507 16.7996 67.5267 16.8L64.2345 16.8007V18.4003V20H67.373C73.1114 20 76.2094 18.411 78.1512 14.4712C79.1798 12.3838 79.2624 11.964 79.1083 9.60577C78.9172 6.6784 78.1028 4.7908 76.278 3.04397C74.276 1.12793 72.0127 0.351566 67.8827 0.164939L64.2345 0V1.64622ZM83.4711 0.715223C83.4807 1.05719 84.3282 5.49643 85.3547 10.5798L87.2211 19.8223L88.8967 19.9307C89.8182 19.99 90.5724 19.8848 90.5724 19.6961C90.5724 19.0103 87.4595 4.60524 86.6242 1.42618C86.2939 0.168851 86.1939 0.0931334 84.8638 0.0931334C83.7519 0.0931334 83.4576 0.224661 83.4711 0.715223ZM100.064 0.359743C99.9754 0.506556 99.4134 2.39486 98.8147 4.55618L97.726 8.486L98.393 11.0757C98.7599 12.5001 99.1265 13.7318 99.2077 13.8129C99.2888 13.8943 100.128 11.0401 101.073 7.47112C102.018 3.9021 102.861 0.782053 102.948 0.537483C103.122 0.0483429 100.354 -0.122287 100.064 0.359743ZM112.995 10.0466V20H114.597H116.198V10.0466V0.0931334H114.597H112.995V10.0466ZM128.3 1.68603V3.29245H136.328H144.357L144.247 1.78166L144.138 0.270873L136.219 0.175245L128.3 0.0796271V1.68603ZM150.011 1.69279V3.29245H157.485H164.959V1.69279V0.0931334H157.485H150.011V1.69279ZM92.0302 4.65465C90.9183 8.31929 90.8792 8.63282 91.2871 10.6175C91.7821 13.029 92.3238 14.2526 92.3413 13.0002C92.347 12.5719 92.4965 12.1322 92.6734 12.023C92.8499 11.9139 93.4226 13.6643 93.9461 15.9123L94.8979 20H96.6742C98.2015 20 98.4236 19.9129 98.2591 19.3779C98.1541 19.0359 97.086 14.9166 95.8859 10.2243C94.6857 5.53197 93.5913 1.48875 93.4535 1.23992C93.3119 0.982548 92.6961 2.45992 92.0302 4.65465ZM132.797 11.6331C128.582 16.7154 127.944 17.6503 127.944 18.7427V20H136.13H144.316V18.5781V17.1562H138.621C135.489 17.1562 132.927 17.0705 132.927 16.9656C132.927 16.8608 134.336 15.0613 136.058 12.9665C137.78 10.8716 139.801 8.39821 140.55 7.46934L141.91 5.78081H139.78H137.65L132.797 11.6331ZM42.8795 10.0466V11.4685H49.464H56.0484V10.0466V8.62465H49.464H42.8795V10.0466ZM150.011 10.0466V11.4685H156.773H163.535V10.0466V8.62465H156.773H150.011V10.0466ZM42.8795 18.4003V20H50.1758H57.4721V18.4003V16.8007H50.1758H42.8795V18.4003ZM150.011 18.3932V20H157.505H165L164.89 18.4892L164.781 16.9784L157.396 16.8824L150.011 16.7861V18.3932Z" fill="#FDCE38"/>
<path fill-rule="evenodd" clip-rule="evenodd" d="M7.54331 0.481321C4.63262 1.16562 2.13978 3.04966 0.765231 5.60307C0.153765 6.73918 0 7.6325 0 10.0466C0 13.6668 0.678384 15.2252 3.23173 17.47C5.37578 19.3548 7.5661 20 11.8218 20H15.1589L15.0493 18.4892L14.94 16.9784L11.2029 16.7925C9.14743 16.6905 7.1454 16.4253 6.75389 16.2031C3.45169 14.3305 2.36792 9.46927 4.5262 6.21165C5.95485 4.05531 7.86863 3.29245 11.8492 3.29245H15.1179V1.69279V0.0931334L12.0037 0.128683C10.291 0.14859 8.28362 0.307136 7.54331 0.481321ZM20.4567 1.65049V3.29245H25.2384C31.7243 3.29245 32.9138 3.81501 32.9138 6.66347C32.9138 7.94959 32.7319 8.35911 31.8186 9.12623C30.7512 10.0231 30.5936 10.0466 25.5901 10.0466H20.4567V15.0233V20H22.0583H23.66V16.6229V13.2459H25.9606H28.2616L30.6648 16.6229L33.0683 20H34.9486C35.9829 20 36.8289 19.9051 36.8289 19.7888C36.8289 19.6189 33.4932 14.816 32.1116 12.9963C31.8845 12.6974 32.1482 12.4183 32.99 12.0671C35.4817 11.0273 36.7805 8.44016 36.3648 5.34464C36.1146 3.48121 35.2084 2.27187 33.238 1.17166C31.7952 0.365785 31.2143 0.283316 26.0624 0.151433L20.4567 0.00816883V1.65049ZM42.8795 1.69279V3.29245H50.1758H57.4721V1.69279V0.0931334H50.1758H42.8795V1.69279ZM64.2345 1.64622V3.29245H67.2712C70.3844 3.29245 72.2829 3.80292 73.6023 4.99449C75.9556 7.1199 76.3229 11.7276 74.3369 14.2103C72.6655 16.2995 71.3507 16.7996 67.5267 16.8L64.2345 16.8007V18.4003V20H67.373C73.1114 20 76.2094 18.411 78.1512 14.4712C79.1798 12.3838 79.2624 11.964 79.1083 9.60577C78.9172 6.6784 78.1028 4.7908 76.278 3.04397C74.276 1.12793 72.0127 0.351566 67.8827 0.164939L64.2345 0V1.64622ZM83.4711 0.715223C83.4807 1.05719 84.3282 5.49643 85.3547 10.5798L87.2211 19.8223L88.8967 19.9307C89.8182 19.99 90.5724 19.8848 90.5724 19.6961C90.5724 19.0103 87.4595 4.60524 86.6242 1.42618C86.2939 0.168851 86.1939 0.0931334 84.8638 0.0931334C83.7519 0.0931334 83.4576 0.224661 83.4711 0.715223ZM100.064 0.359743C99.9754 0.506556 99.4134 2.39486 98.8147 4.55618L97.726 8.486L98.393 11.0757C98.7599 12.5001 99.1265 13.7318 99.2077 13.8129C99.2888 13.8943 100.128 11.0401 101.073 7.47112C102.018 3.9021 102.861 0.782053 102.948 0.537483C103.122 0.0483429 100.354 -0.122287 100.064 0.359743ZM112.995 10.0466V20H114.597H116.198V10.0466V0.0931334H114.597H112.995V10.0466ZM128.3 1.68603V3.29245H136.328H144.357L144.247 1.78166L144.138 0.270873L136.219 0.175245L128.3 0.0796271V1.68603ZM150.011 1.69279V3.29245H157.485H164.959V1.69279V0.0931334H157.485H150.011V1.69279ZM92.0302 4.65465C90.9183 8.31929 90.8792 8.63282 91.2871 10.6175C91.7821 13.029 92.3238 14.2526 92.3413 13.0002C92.347 12.5719 92.4965 12.1322 92.6734 12.023C92.8499 11.9139 93.4226 13.6643 93.9461 15.9123L94.8979 20H96.6742C98.2015 20 98.4236 19.9129 98.2591 19.3779C98.1541 19.0359 97.086 14.9166 95.8859 10.2243C94.6857 5.53197 93.5913 1.48875 93.4535 1.23992C93.3119 0.982548 92.6961 2.45992 92.0302 4.65465ZM132.797 11.6331C128.582 16.7154 127.944 17.6503 127.944 18.7427V20H136.13H144.316V18.5781V17.1562H138.621C135.489 17.1562 132.927 17.0705 132.927 16.9656C132.927 16.8608 134.336 15.0613 136.058 12.9665C137.78 10.8716 139.801 8.39821 140.55 7.46934L141.91 5.78081H139.78H137.65L132.797 11.6331ZM42.8795 10.0466V11.4685H49.464H56.0484V10.0466V8.62465H49.464H42.8795V10.0466ZM150.011 10.0466V11.4685H156.773H163.535V10.0466V8.62465H156.773H150.011V10.0466ZM42.8795 18.4003V20H50.1758H57.4721V18.4003V16.8007H50.1758H42.8795V18.4003ZM150.011 18.3932V20H157.505H165L164.89 18.4892L164.781 16.9784L157.396 16.8824L150.011 16.7861V18.3932Z" fill="url(#paint0_linear_451_2456)"/>
<defs>
<linearGradient id="paint0_linear_451_2456" x1="-10.5506" y1="23.9316" x2="11.953" y2="-57.6961" gradientUnits="userSpaceOnUse">
<stop stop-color="#FE6F2D"/>
<stop offset="0.650355" stop-color="#FDCE38"/>
</linearGradient>
</defs>
</svg>
